<svg version="1" xmlns="http://www.w3.org/2000/svg" width="341.333" height="341.333" viewBox="0 0 256.000000 256.000000"><path d="M65 2.9c0 .5-1.2 1.2-2.7 1.6-5 1.2-7.3 5-7.3 12.2V23H44.1c-6.1 0-11.2.4-11.5.9-.3.5-2.2 1.2-4.1 1.5-4.5.9-12.3 6.1-13.7 9.2-.6 1.3-1.5 2.4-2 2.4s-.7.4-.4.9c.4.5 0 1.1-.6 1.3-1 .4-1.4 6.8-1.6 27.1L9.9 93H248V68c0-16-.4-25-1-25-.5 0-1-.9-1-1.9 0-2.4-7.6-12.1-9.4-12.1-.7 0-1.9-.6-2.5-1.4-.7-.8-3-1.7-5.2-2.1-2.1-.4-3.9-1.1-3.9-1.6s-5.2-.9-11.6-.9h-11.5l.2-6c.3-6.8-2-11.2-6.9-13.2-3.1-1.2-10.8-1.3-13.7-.2-2.9 1-5.5 3.5-4.9 4.5.3.5 0 .9-.5.9-.6 0-1.1.7-1.1 1.5s-.5 1.5-1.1 1.5c-.7 0-1 2-.7 5.5l.3 5.5H84v-5c0-3-.4-5-1.1-5-.6 0-.9-.6-.6-1.4C83 9.9 77.1 4 74.8 4c-.9 0-1.9-.4-2.2-.8C71.9 2 65 1.8 65 2.9zM33 134.5V150h35v-31H33v15.5zM85 134.5V150h35v-31H85v15.5zM137.7 119.7c-.4.3-.7 7.3-.7 15.5V150h35v-31h-16.8c-9.3 0-17.2.3-17.5.7zM190 134.5V150h33.8c.4 0 .8-7 1-15.5l.3-15.5H190v15.5zM189.7 170.7c-.4.3-.7 7.7-.7 16.4 0 15.6 0 15.9 2.3 16.4 1.2.3 9.2.4 17.7.3l15.5-.3.3-16.8.2-16.7h-17.3c-9.6 0-17.7.3-18 .7zM33 187v16l17.3-.2 17.2-.3v-31l-17.2-.3L33 171v16zM85 187v16h35v-32H85v16zM137.4 172.3c-.2.7-.3 7.8-.2 15.7l.3 14.5 17.3.3 17.2.2v-32h-17c-13.1 0-17.2.3-17.6 1.3zM10.3 221.4c.3 5.2.9 8.1 1.8 8.7.8.5 1 .9.4.9-.5 0-.2.5.8 1.1.9.5 1.7 1.4 1.7 1.9 0 1.5 3.3 5 4.6 5 .6 0 1.7.7 2.4 1.5s1.6 1.2 2.1.9c.5-.3.9-.1.9.5 0 .5 1.5 1.3 3.3 1.6 1.7.4 3.5.9 3.9 1.1.8.5 191.8.5 192.6 0 .4-.2 2.2-.7 4-1.1 1.7-.3 3.2-1.1 3.2-1.6s.3-.8.7-.7c3.2.9 13.3-9.3 13.3-13.4 0-1 .5-1.8 1-1.8 1.1 0 1.2-6.2.1-10-.8-2.5-.8-2.5-1.5.6-1.1 4.8-7 10.9-13.4 14.1l-5.7 2.8h-196l-4.6-2.2c-5.7-2.9-10.4-7.4-13.5-13.2l-2.5-4.6.4 7.9z"/></svg>