<?xml version="1.0" standalone="no"?>
<!DOCTYPE svg PUBLIC "-//W3C//DTD SVG 20010904//EN"
 "http://www.w3.org/TR/2001/REC-SVG-20010904/DTD/svg10.dtd">
<svg version="1.0" xmlns="http://www.w3.org/2000/svg"
 width="1200.000000pt" height="1200.000000pt" viewBox="0 0 1200.000000 1200.000000"
 preserveAspectRatio="xMidYMid meet">

<g transform="translate(0.000000,1200.000000) scale(0.100000,-0.100000)"
fill="#000000" stroke="none">
<path d="M0 6000 l0 -6000 6000 0 6000 0 0 6000 0 6000 -6000 0 -6000 0 0
-6000z m10200 3300 l0 -900 -75 0 -75 0 0 825 0 825 -4050 0 -4050 0 0 -825 0
-825 -75 0 -75 0 0 900 0 900 4200 0 4200 0 0 -900z m-300 -3300 l0 -3900
-3900 0 -3900 0 0 3900 0 3900 3900 0 3900 0 0 -3900z m-7950 -3225 l0 -825
4050 0 4050 0 0 825 0 825 75 0 75 0 0 -900 0 -900 -4200 0 -4200 0 0 900 0
900 75 0 75 0 0 -825z"/>
<path d="M2250 6000 l0 -3750 3750 0 3750 0 0 3750 0 3750 -3750 0 -3750 0 0
-3750z m5179 2261 c57 -41 71 -86 71 -243 l0 -138 -1500 0 -1500 0 0 138 c0
112 4 144 19 178 17 38 54 73 91 87 8 3 638 5 1400 4 l1385 -2 34 -24z m71
-1534 c0 -909 -2 -1025 -16 -1045 l-15 -22 -1469 0 -1469 0 -15 22 c-14 20
-16 136 -16 1045 l0 1023 1500 0 1500 0 0 -1023z m-2310 -2337 l0 -370 75 0
75 0 0 -60 0 -60 -205 0 -205 0 0 60 0 60 65 0 65 0 0 310 0 310 -65 0 -65 0
0 60 0 60 130 0 130 0 0 -370z m2610 -60 l0 -430 -65 0 c-63 0 -65 1 -65 25
l0 25 -37 -24 c-87 -55 -174 -58 -263 -10 -124 67 -180 240 -132 400 27 89 68
143 134 180 45 24 64 29 124 29 62 0 77 -4 122 -32 l52 -32 0 89 0 90 -60 0
-60 0 0 60 0 60 125 0 125 0 0 -430z m-4233 189 c28 -8 58 -25 79 -46 l34 -34
0 36 0 35 60 0 60 0 0 -140 0 -140 -59 0 -58 0 -6 42 c-10 74 -79 138 -149
138 -161 0 -248 -213 -141 -341 71 -83 221 -92 324 -18 17 12 34 18 38 13 4
-5 19 -26 34 -46 l27 -37 -37 -30 c-57 -47 -123 -66 -234 -66 -88 0 -101 3
-162 33 -113 56 -168 152 -166 291 2 211 170 356 356 310z m919 -24 c37 -18
64 -40 82 -68 l27 -40 3 -244 3 -243 -65 0 -66 0 0 42 0 42 -27 -27 c-51 -48
-119 -71 -208 -71 -91 0 -125 13 -173 68 -53 60 -56 158 -8 221 59 77 196 122
340 111 l78 -6 -7 38 c-8 46 -27 68 -73 83 -52 17 -162 5 -227 -25 l-55 -25
-25 49 c-14 27 -25 52 -25 55 0 3 21 15 48 26 127 56 281 61 378 14z m1583 4
c98 -42 170 -150 186 -282 l7 -57 -256 0 c-240 0 -256 -1 -256 -18 0 -33 54
-102 96 -122 73 -36 191 -22 265 31 17 12 34 18 38 13 4 -5 19 -26 34 -46 l27
-37 -37 -30 c-56 -46 -123 -65 -228 -66 -82 0 -96 3 -157 33 -123 60 -183 164
-176 302 7 153 95 264 235 300 57 14 164 4 222 -21z m804 17 c48 -18 73 -40
101 -91 19 -37 21 -57 24 -282 l4 -243 -66 0 -66 0 0 203 c0 111 -5 219 -11
239 -24 89 -158 92 -222 6 -41 -55 -47 -91 -47 -274 l0 -174 -70 0 -70 0 0
305 0 305 70 0 70 0 0 -67 0 -68 26 45 c51 92 157 131 257 96z m1717 -70 c0
-44 -5 -67 -15 -76 -8 -7 -88 -88 -176 -181 l-161 -169 121 0 121 0 0 60 0 60
60 0 60 0 0 -120 0 -120 -275 0 -275 0 0 59 0 59 122 129 c67 70 147 154 177
186 l55 57 -117 0 -117 0 0 -65 0 -65 -60 0 -60 0 0 125 0 125 270 0 270 0 0
-64z"/>
<path d="M5365 7255 c-14 -13 -25 -32 -25 -41 0 -10 55 -74 123 -143 67 -69
142 -147 165 -172 l44 -47 -172 -169 c-154 -152 -172 -172 -165 -194 12 -38
25 -49 59 -49 27 1 60 28 241 204 l210 204 -50 53 c-189 201 -371 379 -387
379 -11 0 -30 -11 -43 -25z"/>
<path d="M5855 6548 c-41 -23 -47 -66 -15 -98 19 -19 33 -20 424 -20 393 0
404 1 430 21 39 31 34 74 -11 98 -30 16 -800 15 -828 -1z"/>
<path d="M7446 4387 c-123 -69 -120 -304 4 -367 46 -23 107 -26 153 -6 65 27
67 33 67 190 0 135 -1 144 -22 164 -51 47 -138 56 -202 19z"/>
<path d="M4235 4165 c-45 -16 -85 -56 -85 -86 0 -11 13 -34 29 -50 26 -25 37
-29 88 -29 69 0 150 34 176 74 25 38 33 86 16 97 -22 14 -180 10 -224 -6z"/>
<path d="M5840 4388 c-40 -20 -90 -76 -90 -99 0 -5 81 -9 180 -9 167 0 179 1
173 18 -35 98 -162 141 -263 90z"/>
</g>
</svg>
