<?xml version="1.0" standalone="no"?>
<!DOCTYPE svg PUBLIC "-//W3C//DTD SVG 20010904//EN"
 "http://www.w3.org/TR/2001/REC-SVG-20010904/DTD/svg10.dtd">
<svg version="1.0" xmlns="http://www.w3.org/2000/svg"
 width="1395.000000pt" height="263.000000pt" viewBox="0 0 1395.000000 263.000000"
 preserveAspectRatio="xMidYMid meet">

<g transform="translate(0.000000,263.000000) scale(0.100000,-0.100000)"
fill="#ffffff" stroke="none">
<path d="M70 1315 l0 -1235 1150 0 1150 0 0 1235 0 1235 -1150 0 -1150 0 0
-1235z m2160 0 l0 -1095 -1010 0 -1010 0 0 1095 0 1095 1010 0 1010 0 0 -1095z"/>
<path d="M1665 2119 c-83 -56 -336 -297 -449 -427 l-68 -79 -147 -32 c-80 -18
-156 -39 -167 -46 -31 -20 -46 -114 -24 -155 9 -17 15 -15 77 27 37 25 89 56
116 70 42 21 47 22 36 6 -8 -10 -48 -64 -90 -118 -187 -246 -330 -487 -401
-673 -17 -45 -18 -58 -8 -83 16 -36 117 -131 137 -127 9 2 25 33 38 73 73 226
274 600 485 902 93 132 93 132 144 143 63 13 166 25 166 18 0 -3 -25 -65 -56
-139 -105 -249 -194 -511 -194 -569 0 -32 78 -90 122 -90 23 0 24 2 20 64 -8
131 54 348 170 589 54 110 76 146 87 143 9 -2 33 -7 54 -11 46 -7 55 8 38 66
-9 29 -17 39 -32 39 -17 0 -11 13 41 88 33 49 90 121 125 161 68 77 70 86 28
122 -21 19 -149 89 -162 89 -5 0 -44 -23 -86 -51z m-37 -256 c-45 -93 -82
-169 -83 -171 -4 -5 -195 -39 -195 -35 0 25 327 373 349 373 6 0 -27 -75 -71
-167z"/>
<path d="M8490 1698 c-68 -35 -103 -86 -108 -158 l-4 -60 -44 0 -44 0 0 -65 0
-65 45 0 45 0 0 -195 0 -195 -45 0 -45 0 0 -65 0 -65 160 0 161 0 -3 63 -3 62
-47 3 -48 3 0 195 0 194 70 0 70 0 0 65 0 65 -70 0 -70 0 0 30 c0 36 41 83 67
78 10 -2 20 -14 23 -28 5 -22 12 -25 58 -28 l52 -3 0 75 0 76 -40 20 c-53 27
-124 26 -180 -2z"/>
<path d="M7160 1645 l0 -65 45 0 45 0 0 -74 0 -74 -42 21 c-36 18 -60 22 -143
22 -89 0 -105 -3 -150 -27 -60 -32 -114 -87 -146 -148 -20 -38 -24 -60 -24
-145 0 -84 4 -107 23 -147 54 -110 162 -179 289 -186 64 -4 80 -1 138 26 l65
31 6 -25 c6 -23 9 -24 105 -24 l99 0 0 65 0 65 -45 0 -45 0 0 375 0 375 -110
0 -110 0 0 -65z m59 -316 l31 -11 0 -152 0 -153 -52 -28 c-122 -67 -292 -6
-314 110 -23 123 34 216 151 246 36 10 141 3 184 -12z"/>
<path d="M4087 1627 c-3 -8 -8 -44 -12 -80 l-7 -67 -39 0 -39 0 0 -65 0 -65
34 0 33 0 5 -188 c4 -176 6 -191 29 -232 38 -69 88 -103 159 -108 74 -5 100 1
139 34 l31 26 -41 49 c-39 46 -42 48 -62 34 -33 -23 -73 -19 -96 11 -19 25
-21 40 -21 200 l0 174 80 0 80 0 0 65 0 65 -80 0 -80 0 0 80 0 80 -54 0 c-35
0 -56 -5 -59 -13z"/>
<path d="M4450 1575 l0 -65 40 0 40 0 0 -275 0 -275 -40 0 -40 0 0 -65 0 -65
145 0 145 0 0 65 0 65 -40 0 -40 0 0 168 0 169 53 29 c45 24 63 28 128 28 42
0 91 -6 108 -14 56 -23 61 -45 61 -290 l0 -220 110 0 110 0 0 65 0 65 -39 0
-38 0 -6 168 c-6 188 -15 227 -59 278 -49 56 -100 77 -198 82 -82 4 -114 -2
-212 -43 -16 -7 -18 2 -18 94 l0 101 -105 0 -105 0 0 -65z"/>
<path d="M2775 1483 c-55 -8 -130 -33 -170 -56 l-40 -23 -3 -72 -3 -72 66 0
65 0 0 35 c0 43 16 51 122 61 124 11 192 -20 200 -92 l4 -34 -166 0 c-158 0
-169 -1 -217 -25 -32 -16 -61 -41 -79 -67 -25 -36 -29 -50 -29 -113 0 -61 4
-77 27 -112 39 -60 102 -87 208 -91 98 -4 179 20 234 68 l31 29 10 -42 11 -42
92 -3 92 -3 0 66 0 65 -39 0 -39 0 -4 178 c-3 154 -6 183 -25 223 -22 50 -67
89 -123 108 -39 13 -178 22 -225 14z m240 -395 c-27 -89 -104 -138 -217 -138
-37 0 -78 5 -92 11 -31 14 -49 61 -36 93 18 49 43 56 203 56 l148 0 -6 -22z"/>
<path d="M3622 1470 c-30 -10 -68 -29 -87 -40 -29 -18 -33 -18 -39 -4 -3 8 -6
24 -6 35 0 17 -8 19 -100 19 l-100 0 0 -65 0 -65 45 0 45 0 0 -195 0 -195 -45
0 -45 0 0 -65 0 -65 150 0 150 0 0 65 0 65 -40 0 -40 0 2 167 3 167 50 25 c43
23 62 26 149 26 l100 0 8 -32 c8 -32 10 -33 63 -33 l55 0 0 90 c0 89 0 91 -27
102 -16 6 -75 12 -133 14 -86 3 -115 0 -158 -16z"/>
<path d="M6403 1476 c-23 -7 -63 -25 -89 -40 -25 -14 -48 -26 -49 -26 -2 0 -6
16 -9 35 l-7 35 -99 0 -100 0 0 -65 0 -65 45 0 45 0 0 -195 0 -195 -45 0 -45
0 0 -65 0 -65 155 0 155 0 0 65 0 65 -45 0 -45 0 0 158 c0 179 -2 174 80 211
35 16 66 21 136 21 l92 0 6 -35 7 -36 57 3 57 3 3 86 3 87 -33 12 c-50 19
-225 23 -275 6z"/>
<path d="M8895 1477 c-112 -38 -200 -117 -231 -209 -55 -168 21 -340 185 -417
49 -23 68 -26 161 -26 93 0 112 3 162 27 69 32 135 96 168 163 21 42 25 65 25
140 0 78 -4 97 -28 147 -33 68 -90 121 -166 156 -67 31 -209 41 -276 19z m175
-128 c133 -30 198 -165 139 -287 -39 -80 -147 -125 -251 -102 -110 23 -168 91
-168 195 0 99 51 165 149 191 57 16 75 16 131 3z"/>
<path d="M10623 1476 c-23 -7 -63 -25 -89 -40 -25 -14 -48 -26 -49 -26 -2 0
-6 16 -9 35 l-7 35 -99 0 -100 0 0 -65 0 -65 45 0 45 0 0 -195 0 -195 -45 0
-45 0 0 -65 0 -65 155 0 155 0 0 65 0 65 -45 0 -45 0 0 158 c0 179 -2 174 80
211 35 16 66 21 136 21 l92 0 6 -35 7 -36 57 3 57 3 3 86 3 87 -33 12 c-50 19
-225 23 -275 6z"/>
<path d="M11379 1471 c-149 -48 -239 -167 -239 -316 0 -131 72 -241 195 -300
84 -40 211 -47 304 -15 62 21 151 73 151 88 0 4 -19 27 -43 50 l-43 42 -62
-31 c-52 -27 -73 -32 -134 -33 -150 0 -241 92 -225 230 15 134 161 203 324
153 26 -8 32 -16 35 -42 3 -32 3 -32 66 -35 l62 -3 0 75 0 74 -36 21 c-102 61
-245 77 -355 42z"/>
<path d="M12075 1477 c-112 -38 -200 -117 -231 -209 -55 -168 21 -340 185
-417 49 -23 68 -26 161 -26 93 0 112 3 162 27 69 32 135 96 168 163 21 42 25
65 25 140 0 78 -4 97 -28 147 -33 68 -90 121 -166 156 -67 31 -209 41 -276 19z
m175 -128 c133 -30 198 -165 139 -287 -39 -80 -147 -125 -251 -102 -110 23
-168 91 -168 195 0 99 51 165 149 191 57 16 75 16 131 3z"/>
<path d="M12912 1475 c-23 -7 -54 -20 -67 -29 -32 -21 -35 -20 -35 9 l0 25
-100 0 -100 0 0 -65 0 -65 45 0 45 0 0 -195 0 -195 -45 0 -45 0 0 -65 0 -65
150 0 150 0 0 65 0 65 -40 0 -40 0 2 172 3 173 45 25 c38 21 57 24 122 24 138
-2 151 -22 156 -236 l4 -158 -41 0 -41 0 0 -65 0 -65 140 0 140 0 0 65 0 65
-35 0 -35 0 0 154 c0 85 -2 161 -5 168 -4 10 12 24 47 43 46 26 63 29 129 28
147 -1 153 -12 157 -300 l4 -223 104 0 104 0 0 65 0 65 -39 0 -39 0 -4 178
c-5 203 -15 241 -80 296 -89 77 -277 75 -385 -3 l-41 -29 -28 29 c-52 54 -201
76 -302 44z"/>
<path d="M5210 1415 l0 -65 45 0 45 0 0 -165 c0 -141 3 -172 20 -219 37 -98
123 -146 260 -146 66 0 167 27 197 52 11 9 16 9 24 -3 5 -8 9 -20 9 -26 0 -10
26 -13 95 -13 l95 0 0 65 0 65 -45 0 -45 0 0 260 0 260 -110 0 -110 0 0 -65 0
-65 45 0 45 0 -2 -172 -3 -173 -50 -25 c-41 -20 -64 -24 -126 -24 -158 3 -169
23 -169 312 l0 212 -110 0 -110 0 0 -65z"/>
<path d="M7460 1415 l0 -65 39 0 39 0 4 -172 c5 -201 15 -236 85 -297 54 -48
117 -65 222 -59 55 3 93 12 135 31 32 15 60 27 62 27 1 0 4 -10 6 -22 3 -22 8
-23 96 -26 l92 -3 0 66 0 65 -40 0 -40 0 0 260 0 260 -110 0 -110 0 0 -65 0
-65 40 0 40 0 0 -173 0 -174 -52 -24 c-41 -19 -67 -24 -124 -23 -40 1 -87 7
-104 14 -55 23 -60 45 -60 290 l0 220 -110 0 -110 0 0 -65z"/>
<path d="M9430 1415 l0 -65 45 0 45 0 0 -166 c0 -184 8 -225 52 -279 53 -63
98 -80 218 -80 94 0 111 3 164 28 32 15 60 27 61 27 2 0 6 -11 9 -25 6 -24 8
-25 102 -25 l95 0 -3 63 -3 62 -42 3 -43 3 0 260 0 259 -110 0 -110 0 0 -65 0
-65 45 0 45 0 0 -169 0 -169 -33 -21 c-83 -51 -234 -49 -287 4 l-25 25 -3 230
-3 230 -110 0 -109 0 0 -65z"/>
<path d="M10897 980 c-68 -54 -25 -159 65 -160 49 0 87 33 95 82 5 32 1 41
-25 68 -37 37 -95 41 -135 10z"/>
</g>
</svg>
