<svg xmlns="http://www.w3.org/2000/svg" version="1.0" width="845" height="845" preserveAspectRatio="xMidYMid meet" style=""><rect id="backgroundrect" width="100%" height="100%" x="0" y="0" fill="none" stroke="none" class="" style=""/>


<g class="currentLayer" style=""><title>Layer 1</title><g transform="translate(0,1200) scale(0.10000000149011612,-0.10000000149011612) " fill="#ffffff" stroke="none" id="svg_1" class="">
<path d="M34.43438482284546,11072.973022460938 l0,-900 l75,0 l75,0 l0,825 l0,825 l4050,0 l4050,0 l0,-825 l0,-825 l75,0 l75,0 l0,900 l0,900 l-4200,0 l-4200,0 l0,-900 z" id="svg_2"/>
<path d="M334.43438482284546,7772.9730224609375 l0,-3900 l3900,0 l3900,0 l0,3900 l0,3900 l-3900,0 l-3900,0 l0,-3900 zm7650,0 l0,-3750 l-3750,0 l-3750,0 l0,3750 l0,3750 l3750,0 l3750,0 l0,-3750 z" id="svg_3"/>
<path d="M2851.4343848228455,10057.973022460938 c-22,-7 -50,-24 -64,-37 c-45,-41 -53,-76 -53,-233 l0,-145 l1501,0 l1500,0 l-3,158 c-3,156 -3,159 -31,195 c-60,78 70,72 -1452,74 c-1134,2 -1366,0 -1398,-12 z" id="svg_4"/>
<path d="M2734.4343848228455,8497.973022460938 c0,-1022 0,-1035 20,-1055 c20,-20 33,-20 1478,-20 c1454,0 1458,0 1480,20 l22,21 l0,1034 l0,1035 l-1500,0 l-1500,0 l0,-1035 zm1029,447 c58,-59 153,-155 211,-214 l104,-108 l-209,-204 c-218,-213 -237,-226 -277,-189 c-10,9 -18,29 -18,44 c0,22 30,56 165,185 c152,145 178,176 158,186 c-5,2 -77,73 -160,159 c-131,133 -153,160 -153,187 c0,32 29,62 59,62 c8,0 62,-48 120,-108 zm1178,-648 c15,-24 15,-29 2,-53 l-15,-26 l-424,0 l-424,0 l-15,26 c-13,24 -13,29 2,53 l17,26 l420,0 l420,0 l17,-26 z" id="svg_5"/>
<path d="M3154.4343848228455,6472.9730224609375 l0,-60 l70,0 l70,0 l0,-310 l0,-310 l-70,0 l-70,0 l0,-60 l0,-60 l210,0 l210,0 l0,60 l0,60 l-70,0 l-70,0 l0,370 l0,370 l-140,0 l-140,0 l0,-60 z" id="svg_6"/>
<path d="M5783.4343848228455,6522.9730224609375 c0,-5 -1,-31 -2,-57 l-1,-48 l57,-3 l57,-3 l0,-83 l0,-83 l-57,29 c-51,26 -66,29 -125,25 c-152,-10 -247,-121 -256,-299 c-10,-198 91,-334 255,-345 c60,-4 74,-2 126,25 c51,26 57,27 57,10 c0,-16 9,-18 70,-18 l70,0 l0,430 l0,430 l-125,0 c-76,0 -125,-4 -126,-10 zm74,-368 l32,-18 l3,-157 l3,-157 l-33,-20 c-129,-78 -268,10 -268,170 c0,94 38,165 105,196 c38,18 116,11 158,-14 z" id="svg_7"/>
<path d="M1634.4343848228455,6285.9730224609375 c-64,-23 -141,-104 -169,-178 c-19,-50 -22,-74 -19,-150 c5,-108 33,-172 100,-229 c117,-101 351,-100 477,2 l24,19 l-32,47 c-18,25 -34,46 -37,46 c-2,0 -28,-13 -57,-30 c-93,-52 -210,-50 -275,5 c-85,71 -88,243 -5,317 c35,32 94,50 139,43 c71,-10 114,-57 129,-138 l7,-37 l59,0 l59,0 l0,140 l0,140 l-60,0 l-60,0 l0,-36 l0,-37 l-22,28 c-47,61 -161,82 -258,48 z" id="svg_8"/>
<path d="M2435.4343848228455,6287.9730224609375 c-29,-7 -75,-23 -102,-35 l-48,-23 l26,-51 c14,-28 26,-52 28,-54 c1,-1 22,7 47,18 c151,67 308,40 308,-52 l0,-33 l-113,-1 c-127,0 -201,-22 -263,-77 c-48,-41 -64,-77 -64,-138 c0,-145 146,-225 318,-174 c29,9 68,30 87,46 l35,31 l0,-36 l0,-36 l70,0 l70,0 l0,233 c0,262 -7,290 -73,342 c-71,53 -204,70 -326,40 zm237,-341 c34,-10 30,-64 -9,-109 c-57,-64 -204,-85 -253,-35 c-26,25 -25,76 1,102 c37,37 188,61 261,42 z" id="svg_9"/>
<path d="M4047.4343848228455,6283.9730224609375 c-73,-25 -136,-80 -170,-149 c-36,-73 -44,-193 -18,-271 c22,-67 91,-143 163,-178 c51,-25 67,-28 162,-28 c93,0 111,3 160,27 c30,15 66,35 79,46 l24,19 l-32,47 c-18,25 -34,46 -37,46 c-2,0 -28,-13 -57,-30 c-94,-53 -210,-50 -278,7 c-29,25 -59,77 -59,103 c0,7 86,10 255,10 l255,0 l0,33 c0,99 -60,223 -133,277 c-81,60 -212,77 -314,41 zm203,-126 c45,-22 84,-66 84,-94 c0,-8 -55,-11 -174,-11 l-175,0 l11,30 c5,17 24,41 42,54 c68,51 138,58 212,21 z" id="svg_10"/>
<path d="M4954.4343848228455,6291.9730224609375 c-45,-18 -87,-57 -109,-101 l-21,-43 l0,68 l0,67 l-70,0 l-70,0 l0,-305 l0,-305 l69,0 l69,0 l4,183 c3,172 4,185 28,232 c47,91 163,123 217,60 c22,-25 23,-32 23,-251 l0,-224 l70,0 l70,0 l0,228 c0,127 -5,244 -11,265 c-13,47 -63,106 -106,123 c-37,16 -126,17 -163,3 z" id="svg_11"/>
<path d="M6284.4343848228455,6157.9730224609375 l0,-125 l60,0 l60,0 l0,65 l0,65 l116,0 l116,0 l-176,-184 l-176,-184 l0,-61 l0,-61 l275,0 l275,0 l0,120 l0,120 l-60,0 l-60,0 l0,-60 l0,-60 l-115,0 c-63,0 -115,3 -115,6 c0,3 76,85 170,182 l170,177 l0,63 l0,62 l-270,0 l-270,0 l0,-125 z" id="svg_12"/>
<path d="M34.43438482284546,4472.9730224609375 l0,-900 l4200,0 l4200,0 l0,900 l0,900 l-75,0 l-75,0 l0,-825 l0,-825 l-4050,0 l-4050,0 l0,825 l0,825 l-75,0 l-75,0 l0,-900 z" id="svg_13"/>
</g></g></svg>