<?xml version="1.0" standalone="no"?>
<!DOCTYPE svg PUBLIC "-//W3C//DTD SVG 20010904//EN"
 "http://www.w3.org/TR/2001/REC-SVG-20010904/DTD/svg10.dtd">
<svg version="1.0" xmlns="http://www.w3.org/2000/svg"
 width="1200.000000pt" height="1200.000000pt" viewBox="0 0 1200.000000 1200.000000"
 preserveAspectRatio="xMidYMid meet">

<g transform="translate(0.000000,1200.000000) scale(0.100000,-0.100000)"
fill="#ffffff" stroke="none">
<path d="M1800 9300 l0 -900 75 0 75 0 0 825 0 825 4050 0 4050 0 0 -825 0
-825 75 0 75 0 0 900 0 900 -4200 0 -4200 0 0 -900z"/>
<path d="M2100 6000 l0 -3900 3900 0 3900 0 0 3900 0 3900 -3900 0 -3900 0 0
-3900z m7650 0 l0 -3750 -3750 0 -3750 0 0 3750 0 3750 3750 0 3750 0 0 -3750z"/>
<path d="M4617 8285 c-22 -7 -50 -24 -64 -37 -45 -41 -53 -76 -53 -233 l0
-145 1501 0 1500 0 -3 158 c-3 156 -3 159 -31 195 -60 78 70 72 -1452 74
-1134 2 -1366 0 -1398 -12z"/>
<path d="M4500 6725 c0 -1022 0 -1035 20 -1055 20 -20 33 -20 1478 -20 1454 0
1458 0 1480 20 l22 21 0 1034 0 1035 -1500 0 -1500 0 0 -1035z m1029 447 c58
-59 153 -155 211 -214 l104 -108 -209 -204 c-218 -213 -237 -226 -277 -189
-10 9 -18 29 -18 44 0 22 30 56 165 185 152 145 178 176 158 186 -5 2 -77 73
-160 159 -131 133 -153 160 -153 187 0 32 29 62 59 62 8 0 62 -48 120 -108z
m1178 -648 c15 -24 15 -29 2 -53 l-15 -26 -424 0 -424 0 -15 26 c-13 24 -13
29 2 53 l17 26 420 0 420 0 17 -26z"/>
<path d="M4920 4700 l0 -60 70 0 70 0 0 -310 0 -310 -70 0 -70 0 0 -60 0 -60
210 0 210 0 0 60 0 60 -70 0 -70 0 0 370 0 370 -140 0 -140 0 0 -60z"/>
<path d="M7549 4750 c0 -5 -1 -31 -2 -57 l-1 -48 57 -3 57 -3 0 -83 0 -83 -57
29 c-51 26 -66 29 -125 25 -152 -10 -247 -121 -256 -299 -10 -198 91 -334 255
-345 60 -4 74 -2 126 25 51 26 57 27 57 10 0 -16 9 -18 70 -18 l70 0 0 430 0
430 -125 0 c-76 0 -125 -4 -126 -10z m74 -368 l32 -18 3 -157 3 -157 -33 -20
c-129 -78 -268 10 -268 170 0 94 38 165 105 196 38 18 116 11 158 -14z"/>
<path d="M3400 4513 c-64 -23 -141 -104 -169 -178 -19 -50 -22 -74 -19 -150 5
-108 33 -172 100 -229 117 -101 351 -100 477 2 l24 19 -32 47 c-18 25 -34 46
-37 46 -2 0 -28 -13 -57 -30 -93 -52 -210 -50 -275 5 -85 71 -88 243 -5 317
35 32 94 50 139 43 71 -10 114 -57 129 -138 l7 -37 59 0 59 0 0 140 0 140 -60
0 -60 0 0 -36 0 -37 -22 28 c-47 61 -161 82 -258 48z"/>
<path d="M4201 4515 c-29 -7 -75 -23 -102 -35 l-48 -23 26 -51 c14 -28 26 -52
28 -54 1 -1 22 7 47 18 151 67 308 40 308 -52 l0 -33 -113 -1 c-127 0 -201
-22 -263 -77 -48 -41 -64 -77 -64 -138 0 -145 146 -225 318 -174 29 9 68 30
87 46 l35 31 0 -36 0 -36 70 0 70 0 0 233 c0 262 -7 290 -73 342 -71 53 -204
70 -326 40z m237 -341 c34 -10 30 -64 -9 -109 -57 -64 -204 -85 -253 -35 -26
25 -25 76 1 102 37 37 188 61 261 42z"/>
<path d="M5813 4511 c-73 -25 -136 -80 -170 -149 -36 -73 -44 -193 -18 -271
22 -67 91 -143 163 -178 51 -25 67 -28 162 -28 93 0 111 3 160 27 30 15 66 35
79 46 l24 19 -32 47 c-18 25 -34 46 -37 46 -2 0 -28 -13 -57 -30 -94 -53 -210
-50 -278 7 -29 25 -59 77 -59 103 0 7 86 10 255 10 l255 0 0 33 c0 99 -60 223
-133 277 -81 60 -212 77 -314 41z m203 -126 c45 -22 84 -66 84 -94 0 -8 -55
-11 -174 -11 l-175 0 11 30 c5 17 24 41 42 54 68 51 138 58 212 21z"/>
<path d="M6720 4519 c-45 -18 -87 -57 -109 -101 l-21 -43 0 68 0 67 -70 0 -70
0 0 -305 0 -305 69 0 69 0 4 183 c3 172 4 185 28 232 47 91 163 123 217 60 22
-25 23 -32 23 -251 l0 -224 70 0 70 0 0 228 c0 127 -5 244 -11 265 -13 47 -63
106 -106 123 -37 16 -126 17 -163 3z"/>
<path d="M8050 4385 l0 -125 60 0 60 0 0 65 0 65 116 0 116 0 -176 -184 -176
-184 0 -61 0 -61 275 0 275 0 0 120 0 120 -60 0 -60 0 0 -60 0 -60 -115 0
c-63 0 -115 3 -115 6 0 3 76 85 170 182 l170 177 0 63 0 62 -270 0 -270 0 0
-125z"/>
<path d="M1800 2700 l0 -900 4200 0 4200 0 0 900 0 900 -75 0 -75 0 0 -825 0
-825 -4050 0 -4050 0 0 825 0 825 -75 0 -75 0 0 -900z"/>
</g>
</svg>
